<svg xmlns="http://www.w3.org/2000/svg" viewBox="0 0 256 256" width="256" height="256" fill="none">
  <style>
    .bg { fill: #0F2D3D; }
    .symbol { fill: #2DD4BF; }
    @media (prefers-color-scheme: dark) {
      .bg { fill: #FFFFFF; }
      .symbol { fill: #0F2D3D; }
    }
  </style>
  <rect width="256" height="256" rx="60" class="bg"/>
  <path class="symbol" d="M81.054 180.388c-11.13-4.14-19.42-12.43-24.88-24.88-5.46-12.45-5.46-27.33 0-39.78 5.46-12.45 13.75-20.74 24.88-24.88 11.13-4.14 23.3-4.14 34.43 0 11.13 4.14 19.42 12.43 24.88 24.88 5.46 12.45 5.46 27.33 0 39.78-5.46 12.45-13.75 20.74-24.88 24.88-11.13 4.14-23.3 4.14-34.43 0Zm30.5-4.88c8.4-3.12 14.6-9.33 18.72-17.73s4.12-17.85 0-26.25-9.32-14.6-17.72-18.72-17.85-4.12-26.25 0-14.6 9.32-18.72 17.72-4.12 17.85 0 26.25 9.32 14.6 17.72 18.72 17.85 4.12 26.25 0Z"/>
  <path class="symbol" d="M138.88 186.62c-11.13-4.14-19.42-12.43-24.88-24.88-5.46-12.45-5.46-27.33 0-39.78 5.46-12.45 13.75-20.74 24.88-24.88 11.13-4.14 23.3-4.14 34.43 0 11.13 4.14 19.42 12.43 24.88 24.88 5.46 12.45 5.46 27.33 0 39.78-5.46 12.45-13.75 20.74-24.88 24.88-11.13 4.14-23.3 4.14-34.43 0Zm30.5-4.88c8.4-3.12 14.6-9.33 18.72-17.73s4.12-17.85 0-26.25-9.32-14.6-17.72-18.72-17.85-4.12-26.25 0-14.6 9.32-18.72 17.72-4.12 17.85 0 26.25 9.32 14.6 17.72 18.72 17.85 4.12 26.25 0Z"/>
  <path class="symbol" d="M110.53 128.5c-11.13-4.14-19.42-12.43-24.88-24.88-5.46-12.45-5.46-27.33 0-39.78 5.46-12.45 13.75-20.74 24.88-24.88 11.13-4.14 23.3-4.14 34.43 0 11.13 4.14 19.42 12.43 24.88 24.88 5.46 12.45 5.46 27.33 0 39.78-5.46 12.45-13.75 20.74-24.88 24.88-11.13 4.14-23.3 4.14-34.43 0Zm30.5-4.88c8.4-3.12 14.6-9.33 18.72-17.73s4.12-17.85 0-26.25-9.32-14.6-17.72-18.72-17.85-4.12-26.25 0-14.6 9.32-18.72 17.72-4.12 17.85 0 26.25 9.32 14.6 17.72 18.72 17.85 4.12 26.25 0Z"/>
</svg>
